<svg width="25" height="25" viewBox="0 0 25 25" fill="none" xmlns="http://www.w3.org/2000/svg">
<path d="M12.5 0C5.5975 0 0 5.5975 0 12.5C0 19.4025 5.5975 25 12.5 25C19.4025 25 25 19.4025 25 12.5C25 5.5975 19.4025 0 12.5 0ZM12.7649 19.7779H12.7619C11.5097 19.7773 10.2793 19.4633 9.18655 18.8675L5.2206 19.9076L6.28204 16.0318C5.62725 14.8977 5.28278 13.611 5.28336 12.2929C5.28507 8.16917 8.64124 4.81434 12.7649 4.81434C14.7661 4.8151 16.6447 5.59406 18.0571 7.0076C19.4696 8.42133 20.2471 10.3004 20.2463 12.2988C20.2446 16.4227 16.888 19.7779 12.7649 19.7779Z" fill="white"/>
<path d="M12.7679 6.07758C9.3379 6.07758 6.5484 8.86593 6.54688 12.2934C6.54649 13.468 6.87532 14.6118 7.49769 15.6015L7.64551 15.8367L7.01723 18.1307L9.37071 17.5135L9.59787 17.6481C10.5525 18.2146 11.6469 18.5143 12.7627 18.5146H12.7652C16.1925 18.5146 18.982 15.7261 18.9836 12.2984C18.9841 10.6373 18.3379 9.07555 17.164 7.90062C15.99 6.72569 14.4286 6.07815 12.7679 6.07758ZM16.4254 14.966C16.2696 15.4024 15.5229 15.8009 15.1637 15.8546C14.8416 15.9027 14.4342 15.9227 13.9863 15.7806C13.7147 15.6944 13.3666 15.5794 12.9205 15.387C11.0454 14.5775 9.82065 12.69 9.72719 12.5652C9.63373 12.4405 8.96387 11.5519 8.96387 10.6319C8.96387 9.71222 9.44681 9.25999 9.61809 9.07307C9.78956 8.88596 9.99212 8.83923 10.1167 8.83923C10.2412 8.83923 10.366 8.84037 10.4749 8.84571C10.5897 8.85143 10.7438 8.80203 10.8954 9.16653C11.0513 9.54075 11.4251 10.4605 11.4718 10.5539C11.5186 10.6476 11.5497 10.7567 11.4875 10.8814C11.4251 11.0062 11.218 11.2753 11.0202 11.5206C10.9372 11.6234 10.8291 11.7149 10.9382 11.902C11.0471 12.089 11.4224 12.701 11.9781 13.1966C12.6922 13.8332 13.2945 14.0305 13.4814 14.1241C13.6682 14.2176 13.7773 14.2019 13.8864 14.0774C13.9953 13.9526 14.3537 13.5317 14.4782 13.3446C14.6028 13.1575 14.7275 13.1887 14.8988 13.2511C15.0703 13.3133 15.9892 13.7655 16.1761 13.859C16.3631 13.9526 16.4876 13.9994 16.5343 14.0774C16.5813 14.1554 16.5813 14.5294 16.4254 14.966Z" fill="white"/>
</svg>
